<svg height="3294" width="720" xmlns="http://www.w3.org/2000/svg">
<rect height="3294" fill="#555" width="720"></rect>
<text fill="#7f7" font-family="Courier New" font-size="12" xml:space="preserve">
<tspan x="10" y="26">2017-03-25 03:47:38 +0800u000acleanup</tspan>
<tspan x="10" y="42"></tspan>
<tspan x="10" y="58">2017-03-25 03:40:55 +0800u000a[$ shTravisCryptoAesEncryptYmlNpmdoc; TRAVIS_REPO_CREATE_FORCE=1 s\</tspan>
<tspan x="10" y="74">hNpmdocRepoListCreate "concat-stream"]</tspan>
<tspan x="10" y="90"></tspan>
<tspan x="10" y="106">2017-03-25 02:50:07 +0800u000acull node -e in shNpmdocRepoListCreate</tspan>
<tspan x="10" y="122"></tspan>
<tspan x="10" y="138">2017-03-25 02:37:22 +0800u000a[$ shTravisCryptoAesEncryptYmlNpmdoc; TRAVIS_REPO_CREATE_FORCE=1 s\</tspan>
<tspan x="10" y="154">hNpmdocRepoListCreate "concat-stream"]</tspan>
<tspan x="10" y="170"></tspan>
<tspan x="10" y="186">2017-03-25 02:36:50 +0800u000a[$ shTravisCryptoAesEncryptYmlNpmdoc; TRAVIS_REPO_CREATE_FORCE=1 s\</tspan>
<tspan x="10" y="202">hNpmdocRepoListCreate "concat-stream"]</tspan>
<tspan x="10" y="218"></tspan>
<tspan x="10" y="234">2017-03-25 02:35:49 +0800u000a[$ shTravisCryptoAesEncryptYmlNpmdoc; TRAVIS_REPO_CREATE_FORCE=1 s\</tspan>
<tspan x="10" y="250">hNpmdocRepoListCreate "concat-stream"]</tspan>
<tspan x="10" y="266"></tspan>
<tspan x="10" y="282">2017-03-25 02:28:28 +0800u000a[$ node -e "console.log(1)"]</tspan>
<tspan x="10" y="298"></tspan>
<tspan x="10" y="314">2017-03-25 01:55:48 +0800u000a[$ pwd; ls -l; . ./lib.utility2.sh; shInit; shTravisCryptoAesEncry\</tspan>
<tspan x="10" y="330">ptYmlNpmdoc; TRAVIS_REPO_CREATE_FORCE=1 shNpmdocRepoListCreate "concat-stream"]</tspan>
<tspan x="10" y="346"></tspan>
<tspan x="10" y="362">2017-03-25 01:48:55 +0800u000a[$ . lib.utility2.sh; shTravisCryptoAesEncryptYmlNpmdoc; TRAVIS_RE\</tspan>
<tspan x="10" y="378">PO_CREATE_FORCE=1 shNpmdocRepoListCreate "concat-stream"]</tspan>
<tspan x="10" y="394"></tspan>
<tspan x="10" y="410">2017-03-25 01:40:32 +0800u000a[$ shTravisCryptoAesEncryptYmlNpmdoc; TRAVIS_REPO_CREATE_FORCE=1 s\</tspan>
<tspan x="10" y="426">hNpmdocRepoListCreate "concat-stream"]</tspan>
<tspan x="10" y="442"></tspan>
<tspan x="10" y="458">2017-03-25 01:18:33 +0800u000a[$ shTravisCryptoAesEncryptYmlNpmdoc; TRAVIS_REPO_CREATE_FORCE=1 s\</tspan>
<tspan x="10" y="474">hNpmdocRepoListCreate "concat-stream"]</tspan>
<tspan x="10" y="490"></tspan>
<tspan x="10" y="506">2017-03-25 01:12:10 +0800u000a[$ shTravisCryptoAesEncryptYmlNpmdoc; TRAVIS_REPO_CREATE_FORCE=1 s\</tspan>
<tspan x="10" y="522">hNpmdocRepoListCreate "concat-stream"]</tspan>
<tspan x="10" y="538"></tspan>
<tspan x="10" y="554">2017-03-25 01:07:49 +0800u000a[$ shTravisCryptoAesEncryptYmlNpmdoc; TRAVIS_REPO_CREATE_FORCE=1 s\</tspan>
<tspan x="10" y="570">hNpmdocRepoListCreate "concat-stream"]</tspan>
<tspan x="10" y="586"></tspan>
<tspan x="10" y="602">2017-03-25 01:02:49 +0800u000a[$ shTravisCryptoAesEncryptYmlNpmdoc; TRAVIS_REPO_CREATE_FORCE=1 s\</tspan>
<tspan x="10" y="618">hNpmdocRepoListCreate "concat-stream"]</tspan>
<tspan x="10" y="634"></tspan>
<tspan x="10" y="650">2017-03-25 00:50:47 +0800u000a[$ shTravisCryptoAesEncryptYmlNpmdoc; TRAVIS_REPO_CREATE_FORCE=1 s\</tspan>
<tspan x="10" y="666">hNpmdocRepoListCreate "concat-stream"]</tspan>
<tspan x="10" y="682"></tspan>
<tspan x="10" y="698">2017-03-25 00:40:25 +0800u000a[$ shTravisCryptoAesEncryptYmlNpmdoc; TRAVIS_REPO_CREATE_FORCE=1 s\</tspan>
<tspan x="10" y="714">hNpmdocRepoListCreate "concat-stream"]</tspan>
<tspan x="10" y="730"></tspan>
<tspan x="10" y="746">2017-03-25 00:39:53 +0800u000a[$ shTravisCryptoAesEncryptYmlNpmdoc; TRAVIS_REPO_CREATE_FORCE=1 s\</tspan>
<tspan x="10" y="762">hNpmdocRepoListCreate "concat-stream"]</tspan>
<tspan x="10" y="778"></tspan>
<tspan x="10" y="794">2017-03-25 00:33:28 +0800u000a[$ shTravisCryptoAesEncryptYmlNpmdoc; TRAVIS_REPO_CREATE_FORCE=1 s\</tspan>
<tspan x="10" y="810">hNpmdocRepoListCreate "concat-stream"]</tspan>
<tspan x="10" y="826"></tspan>
<tspan x="10" y="842">2017-03-25 00:29:25 +0800u000a[$ shTravisCryptoAesEncryptYmlNpmdoc; TRAVIS_REPO_CREATE_FORCE=1 s\</tspan>
<tspan x="10" y="858">hNpmdocRepoListCreate "concat-stream"]</tspan>
<tspan x="10" y="874"></tspan>
<tspan x="10" y="890">2017-03-25 00:24:30 +0800u000a[$ shTravisCryptoAesEncryptYmlNpmdoc; TRAVIS_REPO_CREATE_FORCE=1 s\</tspan>
<tspan x="10" y="906">hNpmdocRepoListCreate "concat-stream"]</tspan>
<tspan x="10" y="922"></tspan>
<tspan x="10" y="938">2017-03-25 00:19:18 +0800u000a[$ shTravisCryptoAesEncryptYmlNpmdoc; TRAVIS_REPO_CREATE_FORCE=1 s\</tspan>
<tspan x="10" y="954">hNpmdocRepoListCreate "concat-stream"]</tspan>
<tspan x="10" y="970"></tspan>
<tspan x="10" y="986">2017-03-25 00:08:01 +0800u000adebug shTravisCryptoAesEncryptYmlNpmdoc</tspan>
<tspan x="10" y="1002"></tspan>
<tspan x="10" y="1018">2017-03-25 00:06:31 +0800u000adebug shTravisCryptoAesEncryptYmlNpmdoc</tspan>
<tspan x="10" y="1034"></tspan>
<tspan x="10" y="1050">2017-03-25 00:06:19 +0800u000adebug shTravisCryptoAesEncryptYmlNpmdoc</tspan>
<tspan x="10" y="1066"></tspan>
<tspan x="10" y="1082">2017-03-24 23:14:03 +0800u000adebug shNpmdocBuild</tspan>
<tspan x="10" y="1098"></tspan>
<tspan x="10" y="1114">2017-03-24 22:58:52 +0800u000adebug shNpmdocBuild</tspan>
<tspan x="10" y="1130"></tspan>
<tspan x="10" y="1146">2017-03-24 21:23:13 +0800u000adebug</tspan>
<tspan x="10" y="1162"></tspan>
<tspan x="10" y="1178">2017-03-24 17:23:40 +0800u000aupdate build-script</tspan>
<tspan x="10" y="1194"></tspan>
<tspan x="10" y="1210">2017-03-24 17:13:41 +0800u000aupdate build-script</tspan>
<tspan x="10" y="1226"></tspan>
<tspan x="10" y="1242">2017-03-24 17:07:31 +0800u000aupdate build-script</tspan>
<tspan x="10" y="1258"></tspan>
<tspan x="10" y="1274">2017-03-24 16:56:24 +0800u000aupdate build-script</tspan>
<tspan x="10" y="1290"></tspan>
<tspan x="10" y="1306">2017-03-24 16:34:14 +0800u000aupdate build-script</tspan>
<tspan x="10" y="1322"></tspan>
<tspan x="10" y="1338">2017-03-24 15:51:46 +0800u000aupdate build-script</tspan>
<tspan x="10" y="1354"></tspan>
<tspan x="10" y="1370">2017-03-24 15:32:51 +0800u000aupdate build-script</tspan>
<tspan x="10" y="1386"></tspan>
<tspan x="10" y="1402">2017-03-24 14:41:36 +0800u000a- allow multi-GITHUB_TOKEN and multi-TRAVIS_ACCESS_TOKEN</tspan>
<tspan x="10" y="1418"></tspan>
<tspan x="10" y="1434">2017-03-23 02:40:07 +0800u000a- deprecate ssh-key in favor of github oauth - https://stackoverfl\</tspan>
<tspan x="10" y="1450">ow.com/questions/18027115/committing-via-travis-ci-failing</tspan>
<tspan x="10" y="1466"></tspan>
<tspan x="10" y="1482">2017-03-22 02:33:04 +0800u000a- fix apidoc bug 'Function.prototype.toString is not generic'</tspan>
<tspan x="10" y="1498"></tspan>
<tspan x="10" y="1514">2017-03-22 01:58:56 +0800u000a[npm publish] - npm publish 2017.3.21</tspan>
<tspan x="10" y="1530">- security - rewrite function moduleDirname, so that it doesn't have to require arbitrary module\</tspan>
<tspan x="10" y="1546">s</tspan>
<tspan x="10" y="1562">- add github-crud command 'touch' to trigger github-hooks and add commit-messages without changi\</tspan>
<tspan x="10" y="1578">ng files</tspan>
<tspan x="10" y="1594">- add commit-message-meta macro 'promote branch1 -&gt; branch2'</tspan>
<tspan x="10" y="1610">- add env var TRAVIS_REPO_CREATE_FORCE to force re-creation of npmdoc</tspan>
<tspan x="10" y="1626">- add env var npm_package_buildNpmdocMain to customize npmdoc target</tspan>
<tspan x="10" y="1642">- add optional commit-message for PUT, DELETE, and TOUCH requests in github-crud</tspan>
<tspan x="10" y="1658">- add package-description to apidoc</tspan>
<tspan x="10" y="1674">- add package-listing to npmdoc</tspan>
<tspan x="10" y="1690">- add package.json to npmdoc</tspan>
<tspan x="10" y="1706">- add async shell-function shNpmdocRepoListCreate to automate creation of npmdoc's</tspan>
<tspan x="10" y="1722">- add shell function shUtility2GrepTravisYml</tspan>
<tspan x="10" y="1738">- fix 'span class' error in https://www.npmjs.com/package/npmdoc-glob</tspan>
<tspan x="10" y="1754">- merge function local.runIfTrue -&gt; local.nop</tspan>
<tspan x="10" y="1770">- rename lib.xxx.npm_scripts.sh to npm_scripts.sh</tspan>
<tspan x="10" y="1786">- shBuildPrint message for deprecate and publish operations</tspan>
<tspan x="10" y="1802"></tspan>
<tspan x="10" y="1818">2017-03-17 21:15:11 +0800u000a[npm publish] - npm publish 2017.3.17</tspan>
<tspan x="10" y="1834">- fix quickstart demo for example.js</tspan>
<tspan x="10" y="1850">- allow auto-deprecating of aliases in publish branch</tspan>
<tspan x="10" y="1866">- allow auto-publishing of aliases in publish branch</tspan>
<tspan x="10" y="1882"></tspan>
<tspan x="10" y="1898">2017-03-17 05:05:24 +0800u000a[npm publish] - npm publish 2017.3.16</tspan>
<tspan x="10" y="1914">- add function buildNpmdoc and buildTest</tspan>
<tspan x="10" y="1930">- automate building and publishing of npmdoc's</tspan>
<tspan x="10" y="1946">- commit tag 'npm publish' will publish package in alpha-branch and promote to beta</tspan>
<tspan x="10" y="1962">- harden shell-function shPasswordEnvUnset</tspan>
<tspan x="10" y="1978">- remove '|| return $?' from shell-scripts when possible to fix 'set -e' failing to exit on erro\</tspan>
<tspan x="10" y="1994">r</tspan>
<tspan x="10" y="2010">- rename function onErrorAssert -&gt; onErrorThrow</tspan>
<tspan x="10" y="2026">- partially revert npm_package_nameAlias back to npm_package_name</tspan>
<tspan x="10" y="2042"></tspan>
<tspan x="10" y="2058">2017-03-11 03:56:44 +0800u000a- npm publish 2017.3.10</tspan>
<tspan x="10" y="2074">- fix build in beta branch</tspan>
<tspan x="10" y="2090"></tspan>
<tspan x="10" y="2106">2017-03-11 02:50:36 +0800u000a- npm publish 2017.3.9</tspan>
<tspan x="10" y="2122">- add functions moduleDirname and onErrorAssert</tspan>
<tspan x="10" y="2138">- add shell-command shPasswordEnvUnset</tspan>
<tspan x="10" y="2154">- rename name api-doc -&gt; apidoc</tspan>
<tspan x="10" y="2170">- revamp build scripts</tspan>
<tspan x="10" y="2186">- split function buildApidoc into new file lib.apidoc.js</tspan>
<tspan x="10" y="2202">- verify README.md's build-links during build</tspan>
<tspan x="10" y="2218"></tspan>
<tspan x="10" y="2234">2017-03-01 17:52:26 +0800u000a- npm publish 2017.2.28</tspan>
<tspan x="10" y="2250">- build - add publish build-branch</tspan>
<tspan x="10" y="2266">- build - auto-clean build if commit-message is CLEAN_BUILD</tspan>
<tspan x="10" y="2282">- build - auto-tag branch in master build-branch</tspan>
<tspan x="10" y="2298">- README.md - normalize browser-script in example.js</tspan>
<tspan x="10" y="2314">- promote utility2 plug in README.md, api-doc, code-coverage, rollup, test-coverage</tspan>
<tspan x="10" y="2330">- lib.db.js - add ttl-cache</tspan>
<tspan x="10" y="2346">- lib.utility2.js - revamp function buildApiDoc</tspan>
<tspan x="10" y="2362">- lib.utility2.sh - revamp shell-function shNpmPublish</tspan>
<tspan x="10" y="2378"></tspan>
<tspan x="10" y="2394">2017-02-21 03:06:56 +0800u000a- npm publish 2017.2.20</tspan>
<tspan x="10" y="2410">- add field nameOriginal to package.json</tspan>
<tspan x="10" y="2426">- do not cover rollups</tspan>
<tspan x="10" y="2442">- merge shell-function shNpmPublishAlias into shNpmPublish</tspan>
<tspan x="10" y="2458">- normalize example.html</tspan>
<tspan x="10" y="2474"></tspan>
<tspan x="10" y="2490">2017-02-20 02:49:59 +0800u000a- npm publish 2017.2.19</tspan>
<tspan x="10" y="2506">- replace env var npm_package_name with npm_package_nameAlias in istanbul code-coverage</tspan>
<tspan x="10" y="2522">- revamp shell-function shNpmPublishAlias</tspan>
<tspan x="10" y="2538"></tspan>
<tspan x="10" y="2554">2017-02-19 01:09:51 +0800u000a- npm publish 2017.2.18</tspan>
<tspan x="10" y="2570">- add shell-function shReadmeTestExampleJs</tspan>
<tspan x="10" y="2586">- do not auto-uglify js-assets in production</tspan>
<tspan x="10" y="2602">- rename doc-api to api-doc</tspan>
<tspan x="10" y="2618">- rename hrku01 to h1</tspan>
<tspan x="10" y="2634">- rename local.template* to local.assetsDict[assets.*.template]</tspan>
<tspan x="10" y="2650">- revamp function buildApiDoc</tspan>
<tspan x="10" y="2666">- revamp function buildReadme and include testCase_buildReadme_default inside testCase_buildApp_\</tspan>
<tspan x="10" y="2682">default</tspan>
<tspan x="10" y="2698">- remove functions assetsAlias, assetsWrite</tspan>
<tspan x="10" y="2714">- use env var npm_package_nameAlias over npm_package_name</tspan>
<tspan x="10" y="2730"></tspan>
<tspan x="10" y="2746">2017-02-06 21:14:20 +0800u000a- npm publish 2017.2.6</tspan>
<tspan x="10" y="2762">- allow env var npm_config_mode_test_case to have comma-separated list of test-cases</tspan>
<tspan x="10" y="2778">- replace function requestResponseCleanup with streamListCleanup</tspan>
<tspan x="10" y="2794">- don't use nameAlias in assets</tspan>
<tspan x="10" y="2810">- rename base64 functions with base64 as prefix</tspan>
<tspan x="10" y="2826">- add commandline options --eval -e --interactive -i</tspan>
<tspan x="10" y="2842">- add env var npm_pacakge_nameHeroku</tspan>
<tspan x="10" y="2858">- add function assetsAlias</tspan>
<tspan x="10" y="2874">- add shell-functions shUtility2DependentsSync shUtility2RollupCreate</tspan>
<tspan x="10" y="2890">- merge files lib.* into standaalone file assets.utility2.rollup.js</tspan>
<tspan x="10" y="2906">- merge files lib.swgg.* into lib.swgg.js</tspan>
<tspan x="10" y="2922"></tspan>
<tspan x="10" y="2938">2017-01-27 14:44:40 +0800u000a- move most logic from Dockerfile.latest to Dockerfile.base</tspan>
<tspan x="10" y="2954">- add shell-function shImageToDataUri</tspan>
<tspan x="10" y="2970">- add shell-function shSshReverseTunnel</tspan>
<tspan x="10" y="2986">- add function sjclHmacSha256Create</tspan>
<tspan x="10" y="3002">- replace localhost with 127.0.0.1</tspan>
<tspan x="10" y="3018"></tspan>
<tspan x="10" y="3034">2017-01-05 20:57:31 +0800u000a- npm publish 2017.1.5</tspan>
<tspan x="10" y="3050">- automate readme-generation with new functions local.buildReadmeElectronLite and local.buildRea\</tspan>
<tspan x="10" y="3066">dmeJslintLite</tspan>
<tspan x="10" y="3082">- revamp github-crud-api</tspan>
<tspan x="10" y="3098">- add function httpRequest</tspan>
<tspan x="10" y="3114">- add shell-function shNpmPublishAlias</tspan>
<tspan x="10" y="3130">- remove function domQuerySelectorAll</tspan>
<tspan x="10" y="3146">- update documentation-generator</tspan>
<tspan x="10" y="3162"></tspan>
<tspan x="10" y="3178">2016-12-26 15:10:22 +0800u000a- add file lib.swgg.css</tspan>
<tspan x="10" y="3194">- add file lib.swgg.js</tspan>
<tspan x="10" y="3210">- add file lib.swgg.json-schema.json</tspan>
<tspan x="10" y="3226">- add file lib.swgg.petstore.json</tspan>
<tspan x="10" y="3242">- add file lib.swgg.schema.json</tspan>
<tspan x="10" y="3258">- add file lib.swgg.ui.js</tspan>
<tspan x="10" y="3274">- add heroku-postbuild npm-script</tspan>
</text>
</svg>
